<svg xmlns="http://www.w3.org/2000/svg" xmlns:xlink="http://www.w3.org/1999/xlink" version="1.2" baseProfile="tiny" x="0px" y="0px" viewBox="0 0 128 160" overflow="visible" xml:space="preserve"><title>Artboard 40</title><g><path d="M72,32v-7.7c2.2-0.7,4.3-1.6,6.4-2.7l-2.2,5.6l3.7,1.5l4.7-11.5L76,12.3l-2,3.5l3.4,2c-1.8,0.9-3.6,1.7-5.4,2.4V12   c2.2-0.5,4.5-0.8,6.8-0.9l-0.2-4c-2.2,0.1-4.4,0.4-6.6,0.8C72,3.6,68.4,0,64,0c-4.4,0-8,3.6-8,8v5.7c-6.1,3.3-8.9,6.8-7.9,9.9   l1.8-0.6l-1.8,0.6c0.8,2.6,3.9,3.7,7.9,3.8V32H0l0,2c0,0.2,0.1,21.2,4.8,41.9c6.3,27.5,18.1,42.4,34,43v4c0,2.2,1.8,4,4,4h41.9   c2.2,0,4-1.8,4-4v-4c16.1-0.5,28-15.3,34.3-43c4.8-20.7,4.8-41.7,4.8-41.9l0-2H72z M64,4c2.2,0,4,1.8,4,4v13.4   c-3,0.9-5.7,1.4-8,1.7V8C60,5.8,61.8,4,64,4z M51.9,22.3L51.9,22.3L51.9,22.3c0-0.4,0.9-2,4.1-4v5C53.6,23.2,52.2,22.8,51.9,22.3z    M60,27.1c2.6-0.3,5.3-0.8,8-1.5V32h-8V27.1z M99.2,88c0.2-1,0.5-2,0.9-3C99.7,85.9,99.4,86.9,99.2,88L99.2,88z M38,97.5   c0-3.6,2.9-6.5,6.5-6.5c3.6,0,6.5,2.9,6.5,6.5c0,0.9-0.2,1.7-0.5,2.4c-1.4,0.9-2.7,2.2-3.6,3.6c-0.8,0.3-1.6,0.5-2.4,0.5   c-0.1,0-0.2,0-0.3,0c-1.6-1.3-3.3-2.4-5.2-3C38.4,99.9,38,98.8,38,97.5z M56,84c0-2.3,1-9.7,2.7-16.9c0.5-2.2,1-4,1.5-5.5   c-0.1,1.3-0.2,2.6-0.3,4.2C59.4,72.4,59,80,59,83.4c-1,0.9-1.9,2-2.6,3.2C56.2,85.8,56,84.9,56,84z M64,64.4   c0.3,3.1,0.5,6.6,0.7,10c-0.4,0.9-0.7,2-0.7,3c0,0.9,0.1,1.7,0.4,2.5c-0.5,0.2-0.9,0.4-1.4,0.6C63.2,76.3,63.6,69.9,64,64.4z    M68.4,70.6c-0.2-2.6-0.3-5.2-0.5-7.6c0-0.5-0.1-1-0.1-1.5c0.7,2.3,1.5,5.2,2.2,8.6C69.4,70.2,68.9,70.4,68.4,70.6z M64,46   c-2.2,0-4-1.8-4-4v-6h8v6C68,44.2,66.2,46,64,46z M4,36h52v6c0,3.7,2.6,6.8,6,7.7v0.9C55,55.1,52,82,52,84c0,2.7,0.9,5.2,2.5,7.2   c-0.2,0.7-0.3,1.4-0.3,2c-1.6-3.7-5.3-6.3-9.6-6.3C38.7,87,34,91.7,34,97.5c0,0.9,0.1,1.7,0.3,2.5c-2.8-0.1-5.7,0.4-8.4,1.8   c-0.6-4.4-4.7-7.4-9.1-6.8c-0.5,0.1-0.9,0.2-1.4,0.3C5.7,74.8,4.3,44.1,4,36z M118.6,77.8c-1.7-3.3-4.8-5.7-8.6-6.5l2.5,6.6   c-2.9-0.1-9.4,0.6-12.2,6.8c0.1-0.2,0.1-0.3,0.2-0.5l-3.3-8.7l12.6-4.8l-1.1-3L97.3,72L85,66.4l-5.3,11.7c0.9,0.1,1.7,0.3,2.5,0.6   l3.8-8.3l7.9,3.6l1.9,5.1c-0.2,0.6-0.4,1.3-0.6,1.9c-1.3-0.6-2.8-1-4.3-1c-1.9-0.1-3.7,0.1-5.5,0.7c2.2,2,3.5,4.8,3.5,7.8   c0,2.9-5.2,4.3-10.5,4.3S68,91.4,68,88.5C68,82.7,72.7,78,78.5,78H79c0-0.2,0-0.3,0-0.5c0-3.2-2-6-4.9-7c-2.2-11.3-5-17.9-8.1-19.8   v-0.9c3.4-0.9,6-4,6-7.7v-6h52C123.8,42,123,60.3,118.6,77.8z"/><path d="M77.8,82.1c-3,0.4-5.3,2.7-5.7,5.7H72c2.1,0.8,4.3,1.2,6.5,1.1c2.2,0.1,4.5-0.3,6.5-1.1C84.6,84.2,81.3,81.6,77.8,82.1z"/></g><text x="0" y="143"  display="none" fill="#00ff00" font-size="5px" font-weight="bold" font-family="'Helvetica Neue', Helvetica, Arial-Unicode, Arial, Sans-serif">Created by Juraj Sedlák</text><text x="0" y="148" fill="#00ff00" font-size="5px" font-weight="bold" display="none"font-family="'Helvetica Neue', Helvetica, Arial-Unicode, Arial, Sans-serif">from the Noun Project</text></svg>